<svg xmlns="http://www.w3.org/2000/svg" width="12.36" height="12.517" viewBox="0 0 12.36 12.517"><defs><style>.a{fill:#2b2b2b;}</style></defs><g transform="translate(373.124 -85.733)"><path class="a" d="M11.7,17.723h-2.1a.682.682,0,0,0-.656.7v2.584H8.168a2.062,2.062,0,0,0,.049-.6h0a5.976,5.976,0,0,0-.5-2.466,2.607,2.607,0,0,0-.767-.991A1.872,1.872,0,0,0,7.4,15.678,1.614,1.614,0,0,0,5.868,14a1.614,1.614,0,0,0-1.536,1.678.188.188,0,0,0,.181.194h.123a1.461,1.461,0,0,0-.017.224,1.327,1.327,0,0,0,1.01,1.319,3.491,3.491,0,0,0-.09.844l-.452.416-1.1.1L2.72,18.321a.361.361,0,0,0-.362,0,.358.358,0,0,0-.113.289v1.01a.188.188,0,0,0,.181.194h.216l-.331,1.224a.2.2,0,0,0,.124.24.18.18,0,0,0,.224-.132l.36-1.332h.515a6.662,6.662,0,0,0,.287,4.9H3.5L2.14,23.091l.287-1.061a.2.2,0,0,0-.124-.24.18.18,0,0,0-.224.132L1.8,22.937A1.85,1.85,0,0,0,0,24.449a.2.2,0,0,0,.136.232l.257.063a1.48,1.48,0,0,0,1.068,1.589,1.3,1.3,0,0,0,1.046-.189,1.458,1.458,0,0,0,.563-.74l.2.05a.2.2,0,0,0,.277-.159c.013-.063.022-.128.029-.193H7.37A1.6,1.6,0,0,0,8.9,26.517,1.6,1.6,0,0,0,10.424,25.1H10.6a.238.238,0,0,0,.188-.073.258.258,0,0,0,.064-.189,2.344,2.344,0,0,0-.074-.525,3.221,3.221,0,0,0-.2-1.956.521.521,0,0,0,.216-.427V21.4H11.7a.682.682,0,0,0,.656-.7V18.426a.681.681,0,0,0-.656-.7ZM2.319,25.816a.959.959,0,0,1-.772.139h0a1.09,1.09,0,0,1-.793-1.123l1.964.484a1.073,1.073,0,0,1-.4.5Zm.906-.772L.409,24.35a1.461,1.461,0,0,1,1.442-1.023l1.38,1.653Q3.228,25.012,3.225,25.044Zm2.735-3.38a1.844,1.844,0,0,0-.053.585v.732H5.245v-1c0-1.135.578-1.338.838-1.371H7.858a.861.861,0,0,1-.164.557.8.8,0,0,1-.628.2h-.65a.435.435,0,0,0-.455.3Zm-.053,1.7v.463H4.616a.574.574,0,0,1,.125-.332.429.429,0,0,1,.322-.131ZM7.85,20.218H6.2c-.066-.223-.125-.467-.174-.718l.5-.348a.815.815,0,0,0,.39-.737.681.681,0,0,0-.4-.561.617.617,0,0,0-.608.072A2.436,2.436,0,0,1,6,17.433a1.2,1.2,0,0,0,.229-.048,1.443,1.443,0,0,0,.423-.179C7,17.429,7.768,18.153,7.85,20.218ZM4.707,15.484a1.217,1.217,0,0,1,1.161-1.1,1.238,1.238,0,0,1,1.174,1.29,1.333,1.333,0,0,1-.677,1.25V15.908A.378.378,0,0,0,6,15.485H4.707Zm.273.611A1.032,1.032,0,0,1,5,15.872h.971l.025,0a.247.247,0,0,1,0,.032v1.135a.837.837,0,0,1-.13.01h0A.927.927,0,0,1,4.98,16.1Zm-.235,3,.429-.037a.175.175,0,0,0,.1-.046l.774-.713h0a.348.348,0,0,1,.232-.1.257.257,0,0,1,.1.021.292.292,0,0,1,.173.239.432.432,0,0,1-.227.374l-.862.6H4.746v-.333Zm-.765.066.4-.035v.3H3.915c-.061,0-.076-.054-.077-.1A.152.152,0,0,1,3.981,19.16Zm-.429-.134a.6.6,0,0,0-.067.4s0,0,0,0H2.608V18.69l.945.335Zm.364.788H5.524a.172.172,0,0,0,.1-.031l.082-.057c.039.187.084.368.133.54-.369.117-.955.494-.955,1.711V23a.741.741,0,0,0-.4.232.982.982,0,0,0-.226.6H3.888a6.086,6.086,0,0,1,.028-4.018Zm.3,4.9c-.067-.165-.131-.329-.192-.494H5.9a.319.319,0,0,0,.367-.353V22.443H7.7a.194.194,0,0,0,0-.388H6.271A.937.937,0,0,1,6.3,21.8c.009-.026.017-.048.117-.048h.65a1.123,1.123,0,0,0,.89-.323l.026-.031h2.446v.533a.121.121,0,0,1-.115.123H8.51a.194.194,0,0,0,0,.388h1.7a2.42,2.42,0,0,1,.264,1.2,1.921,1.921,0,0,0-1.6-.876,1.887,1.887,0,0,0-1.4.625,2.206,2.206,0,0,0-.569,1.324ZM8.9,26.129A1.218,1.218,0,0,1,7.738,25.1h2.318A1.218,1.218,0,0,1,8.9,26.129Zm1.365-1.415H7.272a1.671,1.671,0,0,1,1.6-1.561,1.626,1.626,0,0,1,1.541,1.233l0,.007a1.9,1.9,0,0,1,.06.321ZM12,20.7a.305.305,0,0,1-.294.315H9.314v-1H12Zm0-1.074H9.314v-.413H12Zm0-.8H9.314v-.394a.305.305,0,0,1,.294-.315h2.1a.305.305,0,0,1,.294.315Z" transform="translate(-373.124 71.733)"/></g></svg>