<svg xmlns="http://www.w3.org/2000/svg" width="936.273" height="1043.226" viewBox="0 0 936.273 1043.226">
  <g id="svgg" transform="translate(2000.316 -2100.224)">
    <g id="Layer_x0020_1" transform="translate(-2000.316 2100.224)">
      <path id="Path_164" data-name="Path 164" d="M1667.6,4763.612c-37.733,4.309-69.451,13.58-98.555,27.91-27.336,13.468-55.864,35.372-72.522,53.066-156.557,166.372-56.966,419.866,145.5,456.477,35.759,6.448,82.561,5.323,120.182,5.351,41.507.056,82.909-.223,124.408-.541,83.722-.653,167.645-.112,251.384-.112,37.493,0,86.56,3.921,122.083-1.611,19.1-2.961,32.378-11.092,41.451-21.308,39.967-45.033,11.206-106.246-34.435-116.962-17.423-4.072-101.443-2.252-125.252-2.252H1764.771c-39.063,0-82.227,4.462-117.333-7.8-98.041-34.247-119.314-171-24.858-231.323,31.457-20.086,61.375-21.141,105.477-20.294,83.19,1.627,167.589.307,250.9.307,34.091,0,89.9,5.532,115.1-10.049,23.233-14.371,44-46.438,30.179-85.912-5.48-15.636-16.589-26.88-28.368-34.511-16.161-10.452-28.681-11.967-51.493-11.772l-251.384.431c-39.15,0-87.714-3.433-125.388.89Z" transform="translate(-1419.645 -4560.412)" fill="#fcfcfe" fill-rule="evenodd"/>
      <path id="Path_165" data-name="Path 165" d="M2205.284,4240.948c-30.411,4.044-49.286,19.66-58.911,43.205-12.28,30.057-2.3,60.148,14.191,77.009,19.865,20.32,43.167,21.862,80.153,21.558,34.171-.292,68.426-.063,102.607-.063,58.925-.014,110.7-3.225,151.442,52.171,33.639,45.756,32.381,109.775-.323,155.039-39.526,54.692-94.476,52.094-152.4,51.7l-305.257-.061c-34.928-.029-57.567,11.028-71.483,30.994-23.841,34.192-16.547,110.714,68.915,111.3l305.253.049c32.691,0,66.483.611,98.236-4.47,105.706-16.9,187.447-99.754,214.471-193.392,30.849-106.893-11.293-226.842-97.082-289.749-84.09-61.664-146.884-56.438-248.966-56.021-30.929.126-71.473-3.2-100.849.73Z" transform="translate(-1748.09 -4239.025)" fill="#fcfcfe" fill-rule="evenodd"/>
      <path id="Path_166" data-name="Path 166" d="M2669.162,6674.73c3.94-6.021,19.1-55.153,22.795-66.146l21.912-66.592,5.991,134.4,29.39.431c-.174-17.456-7.554-160.95-10.153-167.275l-38.709-.25c-9.069,13.51-32.684,100.811-39.988,123.008-2.662-3.99-3.217-9.271-4.968-16.11-5.629-22.03-25.533-88.2-33.205-106.9l-39.939.027c-2.662,9.215-2.467,30.759-3.405,41.7-1.188,13.816-1.612,27.827-2.808,41.823-2.238,26.214-4.885,57.793-5.372,83.95l29.015-.11c.959-16.192,5.566-125.94,8.256-130.276,3.218,7.964,6.234,23.739,8.743,32.842l29.112,95.46,23.336.029Z" transform="translate(-2127.801 -5635.753)" fill="#fcfcfe" fill-rule="evenodd"/>
      <path id="Path_167" data-name="Path 167" d="M2019.4,4242.166c-38.9,4.267-68.534,33.469-66.31,76.486,1.9,37.021,35.96,69.038,77,65.646,35.811-2.94,69.544-36.076,64.909-76.9C2090.925,4271.473,2060.413,4237.669,2019.4,4242.166Z" transform="translate(-1747.764 -4240.706)" fill="#fcfcfe" fill-rule="evenodd"/>
      <path id="Path_168" data-name="Path 168" d="M3647.354,6675.926c-3.676-11.105-19.66-33.859-26.45-43.838-9.673-14.22-17.672-29.161-27.451-43.129-7.54-10.786-2.626-14.705,4.024-21.92,8.263-8.937,44.4-51.954,44.916-58.57-7.283-.027-14.574-.014-21.871-.055-8.861-.085-12.148-1.794-16.63,3.474l-35.13,48.23c-3.467,4.879-13.906,20.543-17.561,23.336l-1.584-74.958c-30,.264-30.015-4.684-30.245,11.023-.556,38.958-1.286,126.536.681,156.31l29.9.18c.813-15.706.764-29.036.319-44.824-.354-12.44-.306-16.859,15.115-30.313l47.459,75.109Z" transform="translate(-2711.082 -5634.921)" fill="#fcfcfe" fill-rule="evenodd"/>
      <path id="Path_169" data-name="Path 169" d="M3150.914,6536.135l20.383,70.009-41.5-.124Zm-71.734,140.757c7.346.1,16.4,1.015,23.476.541,9.708-.611,9.423-3.446,11.557-11.994,3-11.981,6.04-24.282,10.62-35.971l52.3-.153,15.3,47.327h32.643L3171.2,6509.31l-38.66.041c-5.469,11.953-9.854,28.021-14.066,41.087C3111.794,6571.132,3081.349,6662.8,3079.18,6676.892Z" transform="translate(-2440.631 -5635.761)" fill="#fcfcfe" fill-rule="evenodd"/>
      <path id="Path_170" data-name="Path 170" d="M1747.668,6604.612c.841-5.143,21.873-70.845,23.413-73.359,5.734,8.047,9.347,25.8,12.763,36.207,4.257,12.968,9.844,21.975,11.064,37.682Zm-22.913,70.345c3.562-7.728,6.217-17.916,9.295-26.632,3.023-8.575,5.779-17.068,8.854-25.783l57.379.293c4.548,5.352,10.108,26.061,12.631,34.8,6.081,20.987,4.013,18.847,28.67,17.4-3.152-20.487-31.721-97.446-41.666-126.287-14.573-42.309-8.683-45.173-41.11-40.919l-55.819,167.248Z" transform="translate(-1593.965 -5633.965)" fill="#2b2b2b" fill-rule="evenodd"/>
      <path id="Path_171" data-name="Path 171" d="M1462.585,6589.451c-1.754-4.476-2.422-58.142-.208-61.978,3.888-6.7,35.61-6.24,50.308,6.589,14.389,12.551,9.316,33.872-.542,45.826C1504.662,6588.937,1479.17,6596.775,1462.585,6589.451Zm-.281,18.971c26.982.653,42.385,1.419,61.546-11.772,28.781-19.791,28.83-76.848-18.09-87.745-13.746-3.2-52.671-3.238-65.031.779-2.464,8.521-1.244,145.273-.917,165.22,4.82.625,18.607,2.653,20.522-1.933C1463.127,6666.313,1461.008,6624.143,1462.3,6608.422Z" transform="translate(-1431.689 -5634.077)" fill="#2b2b2b" fill-rule="evenodd"/>
      <path id="Path_172" data-name="Path 172" d="M2114.716,6647.156c-3.5,4.559-5.567,10.175-5.706,17.861,16.516,6.727,18.712,8.992,41.354,9.575,17.59.46,29.164-1.4,40.659-10.187,19.01-14.565,29.487-49.231,5.646-70.122-16.491-14.454-54.62-21.794-61.354-41.405-8.267-24.045,17.4-34.289,41.162-30.842,8.965,1.292,13.823,5.17,21.28,5.519,3.1-6.923,4.17-9.063,3.986-17.958-80.073-31.121-118.755,44.839-66.922,75.9,19.556,11.718,59.555,18.166,51.876,48.9C2178.3,6668.046,2140.586,6654.62,2114.716,6647.156Z" transform="translate(-1843.759 -5631.432)" fill="#2b2b2b" fill-rule="evenodd"/>
    </g>
  </g>
</svg>
