<svg xmlns="http://www.w3.org/2000/svg" width="214.362" height="160.361" viewBox="0 0 214.362 160.361">
  <g id="Layer_x0020_1" transform="translate(-9846.76 -15730.26)">
    <ellipse id="Ellipse_1" data-name="Ellipse 1" cx="43.122" cy="2.62" rx="43.122" ry="2.62" transform="translate(9906.831 15821.917)" fill="#d2d2d5"/>
    <g id="_1935085081248" transform="translate(9903.203 15730.26)">
      <path id="Path_1" data-name="Path 1" d="M11307.481,16726.82c-1.048,1.158-3.644,5.98-4.48,7.586a6.511,6.511,0,0,0,4.5,1.248Zm6.357,7.914c-.373-1.518-3.537-6.566-4.462-7.873l.075,8.838A14.71,14.71,0,0,0,11313.839,16734.734Zm-12.436-1.225c1.251-2.533,2.973-5.338,4.309-7.723a65.372,65.372,0,0,0-7.675,4.531A7.04,7.04,0,0,0,11301.4,16733.51Zm17.4-3.191a69.152,69.152,0,0,0-7.655-4.545,33.519,33.519,0,0,0,2.11,3.826,39.376,39.376,0,0,1,2.172,3.949c2.048-.881,2.2-1.941,3.374-3.23Zm-21.742-1.828c1.36-.611,7.288-4.316,7.676-4.439l-8.921.072A7.569,7.569,0,0,0,11297.063,16728.49Zm22.768-.014a6.453,6.453,0,0,0,1.1-4.437l-8.8.066c.432.129,2.987,1.779,3.778,2.252A25.987,25.987,0,0,0,11319.831,16728.477Zm-22.768-10.811a8.2,8.2,0,0,0-1.314,4.523l9.01-.162Zm24.017,4.51a8.908,8.908,0,0,0-1.249-4.471l-7.7,4.469Zm-15.371-1.826a38.892,38.892,0,0,0-2.132-3.844l-2.265-3.654c-.022-.1-.105-.111-.163-.164a13.973,13.973,0,0,0-3.188,2.979c.578.863.926.877,1.85,1.393Zm13.168-4.584a18.282,18.282,0,0,0-3.306-3.182l-4.422,7.785C11312.941,16719.391,11317.659,16716.992,11318.877,16715.766Zm-11.361-5.291a10.971,10.971,0,0,0-4.555,1.131,54.591,54.591,0,0,0,4.526,7.8Zm6.328,1.215a8.491,8.491,0,0,0-4.472-1.23l-.008,8.85A54.138,54.138,0,0,0,11313.844,16711.689Zm-2.557-5.678c8.808,1.568,15.953,9.5,14.214,20.092a17.313,17.313,0,0,1-20.2,14.029c-15.451-2.977-18.9-22.377-7.348-30.82A16.664,16.664,0,0,1,11311.287,16706.012Z" transform="translate(-11260.035 -16646.635)" fill="#004230" fill-rule="evenodd"/>
      <path id="Path_2" data-name="Path 2" d="M11464.867,16358.754l-36.97.033-.048-9.278,37.04-.028Z" transform="translate(-11388.505 -16311.966)" fill="#f90" fill-rule="evenodd"/>
      <path id="Path_3" data-name="Path 3" d="M11033.3,16537.395l-71.76.037.024-4.123,71.72-.049Z" transform="translate(-10950.448 -16484.611)" fill="#004230" fill-rule="evenodd"/>
      <path id="Path_4" data-name="Path 4" d="M10980.564,16646.227l-19.055-.021.018-14.49,19.074-.074Z" transform="translate(-10950.418 -16577.033)" fill="#004230" fill-rule="evenodd"/>
      <path id="Path_5" data-name="Path 5" d="M11936.417,15746.483l-16.486-.009-5.54-16.174,12.852-.041Z" transform="translate(-11845.57 -15730.26)" fill="#f90" fill-rule="evenodd"/>
      <path id="Path_6" data-name="Path 6" d="M10847.187,15746.449l-16.517.109,9.1-16.205,12.791,0Z" transform="translate(-10827.506 -15730.344)" fill="#f90" fill-rule="evenodd"/>
      <path id="Path_7" data-name="Path 7" d="M11894.478,16646.551l-15.966.006-.081-14.211,16.056-.064A107.034,107.034,0,0,1,11894.478,16646.551Z" transform="translate(-11811.788 -16577.635)" fill="#004230" fill-rule="evenodd"/>
      <path id="Path_8" data-name="Path 8" d="M11441.487,15746.537l-15.626,0,1.762-16.091,11.968-.12Z" transform="translate(-11386.638 -15730.325)" fill="#f90" fill-rule="evenodd"/>
      <path id="Path_9" data-name="Path 9" d="M11701.933,15746.5l-15.607.021-1.874-16.139,11.9-.061Z" transform="translate(-11629.561 -15730.316)" fill="#f90" fill-rule="evenodd"/>
      <path id="Path_10" data-name="Path 10" d="M11151.735,15746.519l-15.6.026,5.473-16.2,11.886-.007Z" transform="translate(-11114.467 -15730.337)" fill="#f90" fill-rule="evenodd"/>
      <path id="Path_11" data-name="Path 11" d="M11338.1,16643.771c-2.132-2.158-2.387-3.8-6.4-6.17a19.2,19.2,0,0,0-19.879-.018c-5.361,3.322-4.433,4.521-6.432,6.125l-.115-11.5,32.843.027Z" transform="translate(-11273.362 -16577.568)" fill="#004230" fill-rule="evenodd"/>
      <path id="Path_12" data-name="Path 12" d="M10827.6,16027.571l16.569.044c.436,8.167-.374,6.879-8.017,6.879C10829.854,16034.494,10826.854,16034.982,10827.6,16027.571Z" transform="translate(-10824.518 -16009.56)" fill="#004230" fill-rule="evenodd"/>
      <path id="Path_13" data-name="Path 13" d="M12004.812,16033.408l-.062-5.887,16.624.043c.555,7.992-2.308,6.875-11.275,6.882C12006.438,16034.452,12007.456,16034.558,12004.812,16033.408Z" transform="translate(-11930.455 -16009.512)" fill="#004230" fill-rule="evenodd"/>
      <path id="Path_14" data-name="Path 14" d="M11730.392,16033.666c-2.676,1.583-4.144,1.072-7.674,1.072-3.778,0-5,.468-7.979-1l-.059-5.908,15.667.017Z" transform="translate(-11657.959 -16009.804)" fill="#004230" fill-rule="evenodd"/>
      <path id="Path_15" data-name="Path 15" d="M11438.535,16033.89c-2.043,1.229-1.883,1.1-4.693,1.093-12.162-.043-11.3.832-11-6.833l15.646-.059Z" transform="translate(-11383.672 -16010.047)" fill="#004230" fill-rule="evenodd"/>
      <path id="Path_16" data-name="Path 16" d="M11134.579,16033.938l-.039-5.715,15.646-.021c.233,7.648,1.314,6.847-10.7,6.886C11136.555,16035.1,11136.592,16035.27,11134.579,16033.938Z" transform="translate(-11112.966 -16010.151)" fill="#004230" fill-rule="evenodd"/>
      <path id="Path_17" data-name="Path 17" d="M10980.308,16907.486l-17.927.012.014-5.252,18.757-.156Z" transform="translate(-10951.237 -16831.098)" fill="#004230" fill-rule="evenodd"/>
      <path id="Path_18" data-name="Path 18" d="M11222.66,16193.04l-4.623-.045-.037-19.894,4.574-.081Z" transform="translate(-11191.369 -16146.196)" fill="#004230" fill-rule="evenodd"/>
      <path id="Path_19" data-name="Path 19" d="M12073.955,16193.226l-4.581-.017-.063-19.943,4.575-.034Z" transform="translate(-11991.104 -16146.395)" fill="#004230" fill-rule="evenodd"/>
      <path id="Path_20" data-name="Path 20" d="M11898.271,16903.607l-15.256.01-.725-5.668,15.98.012Z" transform="translate(-11815.416 -16827.207)" fill="#004230" fill-rule="evenodd"/>
      <path id="Path_21" data-name="Path 21" d="M10787.724,16651.756l-9.187-.027-.106-4.568,9.358-.09Z" transform="translate(-10778.431 -16591.527)" fill="#004230" fill-rule="evenodd"/>
    </g>
    <text id="ONLINE" transform="translate(9849.331 15886.621)" fill="#004230" font-size="17" font-family="Arial-BoldMT, Arial" font-weight="700"><tspan x="0" y="0">ONLINE</tspan></text>
    <g id="_1935085079872" transform="translate(9846.76 15821.488)">
      <text id="MBAS" transform="translate(66.362 45)" fill="#f90" font-size="50" font-family="Arial-BoldMT, Arial" font-weight="700"><tspan x="0" y="0">MBAS</tspan></text>
      <path id="Path_22" data-name="Path 22" d="M9857.439,17439.795v-31.4h-10.68v-6.834h40.051v23.445a12.237,12.237,0,0,0,.48,3.523,7.936,7.936,0,0,0,1.443,2.775,6.666,6.666,0,0,0,2.4,1.844,7.8,7.8,0,0,0,3.313.666,7.932,7.932,0,0,0,3.363-.666,6.689,6.689,0,0,0,2.4-1.844,8,8,0,0,0,1.441-2.775,12.305,12.305,0,0,0,.48-3.523v-23.445h7.209v23.016a19.648,19.648,0,0,1-1.041,6.543,14.383,14.383,0,0,1-2.992,5.072,13.6,13.6,0,0,1-4.7,3.287,15.635,15.635,0,0,1-6.168,1.17,16.342,16.342,0,0,1-6.115-1.094,12.583,12.583,0,0,1-4.674-3.176,14.71,14.71,0,0,1-2.99-5.045,19.853,19.853,0,0,1-1.066-6.758v-16.2c-4.988,0-9.955.02-14.955.02v31.4Z" transform="translate(-9846.76 -17391.535)" fill="#004230" fill-rule="evenodd"/>
    </g>
  </g>
</svg>
